<svg width="60" height="60" viewBox="0 0 60 60" xmlns="http://www.w3.org/2000/svg">
  <defs>
    <linearGradient id="crimsonGradient" x1="0%" y1="0%" x2="100%" y2="100%">
      <stop offset="0%" style="stop-color:#c0392b;stop-opacity:1" />
      <stop offset="100%" style="stop-color:#8e0e00;stop-opacity:1" />
    </linearGradient>
    <linearGradient id="goldTrim" x1="0%" y1="0%" x2="100%" y2="0%">
      <stop offset="0%" style="stop-color:#ffd166;stop-opacity:1" />
      <stop offset="100%" style="stop-color:#f4a261;stop-opacity:1" />
    </linearGradient>
    <filter id="crestShadow" x="-20%" y="-20%" width="140%" height="140%">
      <feDropShadow dx="2" dy="2" stdDeviation="2" flood-color="#4a0c0c" flood-opacity="0.35"/>
    </filter>
  </defs>

  <!-- Shield background -->
  <path d="M30 6 C38 6 45 10 45 10 L45 30 C45 38 38 46 30 50 C22 46 15 38 15 30 L15 10 C15 10 22 6 30 6 Z" fill="url(#crimsonGradient)" filter="url(#crestShadow)"/>

  <!-- Gold trim -->
  <path d="M30 9 C36 9 41 12 41 12 L41 29 C41 35 36 41 30 44 C24 41 19 35 19 29 L19 12 C19 12 24 9 30 9 Z" fill="none" stroke="url(#goldTrim)" stroke-width="2"/>

  <!-- Tower motif -->
  <rect x="27" y="18" width="6" height="16" fill="#f8e1a1"/>
  <rect x="26" y="17" width="8" height="3" fill="#f8e1a1"/>
  <rect x="28" y="34" width="4" height="5" fill="#f8e1a1"/>

  <!-- Crown -->
  <polygon points="24,16 27,12 30,16 33,12 36,16" fill="url(#goldTrim)"/>

  <!-- Bottom ribbon -->
  <rect x="20" y="46" width="20" height="2" rx="1" fill="url(#goldTrim)"/>
</svg>



