<svg width="60" height="60" viewBox="0 0 60 60" xmlns="http://www.w3.org/2000/svg">
  <defs>
    <linearGradient id="buildingGradient" x1="0%" y1="0%" x2="100%" y2="100%">
      <stop offset="0%" style="stop-color:#2c3e50;stop-opacity:1" />
      <stop offset="100%" style="stop-color:#34495e;stop-opacity:1" />
    </linearGradient>
    <linearGradient id="accentGradient" x1="0%" y1="0%" x2="100%" y2="100%">
      <stop offset="0%" style="stop-color:#e74c3c;stop-opacity:1" />
      <stop offset="100%" style="stop-color:#c0392b;stop-opacity:1" />
    </linearGradient>
    <filter id="shadow" x="-20%" y="-20%" width="140%" height="140%">
      <feDropShadow dx="2" dy="2" stdDeviation="2" flood-color="#000000" flood-opacity="0.3"/>
    </filter>
  </defs>
  
  <!-- Background Circle -->
  <circle cx="30" cy="30" r="28" fill="url(#buildingGradient)" filter="url(#shadow)"/>
  
  <!-- Main Building Structure -->
  <rect x="18" y="25" width="8" height="20" fill="url(#accentGradient)" rx="1"/>
  <rect x="28" y="20" width="8" height="25" fill="url(#accentGradient)" rx="1"/>
  <rect x="38" y="30" width="8" height="15" fill="url(#accentGradient)" rx="1"/>
  
  <!-- Windows -->
  <rect x="19.5" y="27" width="5" height="3" fill="#ffffff" opacity="0.9"/>
  <rect x="19.5" y="32" width="5" height="3" fill="#ffffff" opacity="0.9"/>
  <rect x="19.5" y="37" width="5" height="3" fill="#ffffff" opacity="0.9"/>
  
  <rect x="29.5" y="22" width="5" height="3" fill="#ffffff" opacity="0.9"/>
  <rect x="29.5" y="27" width="5" height="3" fill="#ffffff" opacity="0.9"/>
  <rect x="29.5" y="32" width="5" height="3" fill="#ffffff" opacity="0.9"/>
  <rect x="29.5" y="37" width="5" height="3" fill="#ffffff" opacity="0.9"/>
  
  <rect x="39.5" y="32" width="5" height="3" fill="#ffffff" opacity="0.9"/>
  <rect x="39.5" y="37" width="5" height="3" fill="#ffffff" opacity="0.9"/>
  
  <!-- Roof Details -->
  <polygon points="18,25 22,20 26,25" fill="#e67e22"/>
  <polygon points="28,20 32,15 36,20" fill="#e67e22"/>
  <polygon points="38,30 42,25 46,30" fill="#e67e22"/>
  
  <!-- Decorative Elements -->
  <circle cx="30" cy="12" r="2" fill="#f39c12"/>
  <circle cx="25" cy="15" r="1.5" fill="#f39c12"/>
  <circle cx="35" cy="15" r="1.5" fill="#f39c12"/>
  
  <!-- Bottom Accent Line -->
  <rect x="15" y="48" width="30" height="2" fill="url(#accentGradient)" rx="1"/>
</svg>


