<svg width="60" height="60" viewBox="0 0 60 60" xmlns="http://www.w3.org/2000/svg">
  <defs>
    <linearGradient id="azureGradient" x1="0%" y1="0%" x2="100%" y2="100%">
      <stop offset="0%" style="stop-color:#00b4d8;stop-opacity:1" />
      <stop offset="100%" style="stop-color:#0077b6;stop-opacity:1" />
    </linearGradient>
    <linearGradient id="seaGradient" x1="0%" y1="0%" x2="100%" y2="0%">
      <stop offset="0%" style="stop-color:#48cae4;stop-opacity:1" />
      <stop offset="100%" style="stop-color:#0096c7;stop-opacity:1" />
    </linearGradient>
    <filter id="softShadow" x="-20%" y="-20%" width="140%" height="140%">
      <feDropShadow dx="1.5" dy="2" stdDeviation="2" flood-color="#003049" flood-opacity="0.25"/>
    </filter>
  </defs>

  <!-- Rounded background -->
  <rect x="5" y="5" width="50" height="50" rx="12" fill="url(#azureGradient)" filter="url(#softShadow)"/>

  <!-- Abstract 'A' monogram (Azure) -->
  <polygon points="30,12 42,36 38,36 34,28 26,28 22,36 18,36" fill="#e9f1fe" opacity="0.95"/>
  <rect x="28.5" y="18" width="3" height="14" fill="#90e0ef"/>

  <!-- Stylized skyline -->
  <rect x="17" y="30" width="4" height="8" fill="#caf0f8"/>
  <rect x="23" y="27" width="4" height="11" fill="#caf0f8"/>
  <rect x="33" y="29" width="4" height="9" fill="#caf0f8"/>
  <rect x="39" y="26" width="4" height="12" fill="#caf0f8"/>

  <!-- Wave motif at bottom -->
  <path d="M10,45 C15,42 20,48 25,45 C30,42 35,48 40,45 C45,42 50,48 55,45 L55,55 L5,55 L5,45 Z" fill="url(#seaGradient)" opacity="0.95"/>
</svg>



