<svg width="60" height="60" viewBox="0 0 60 60" xmlns="http://www.w3.org/2000/svg">
  <defs>
    <linearGradient id="luxuryGradient" x1="0%" y1="0%" x2="100%" y2="100%">
      <stop offset="0%" style="stop-color:#8e44ad;stop-opacity:1" />
      <stop offset="100%" style="stop-color:#6c5ce7;stop-opacity:1" />
    </linearGradient>
    <linearGradient id="goldGradient" x1="0%" y1="0%" x2="100%" y2="100%">
      <stop offset="0%" style="stop-color:#f39c12;stop-opacity:1" />
      <stop offset="100%" style="stop-color:#e67e22;stop-opacity:1" />
    </linearGradient>
    <filter id="glow" x="-50%" y="-50%" width="200%" height="200%">
      <feGaussianBlur stdDeviation="3" result="coloredBlur"/>
      <feMerge> 
        <feMergeNode in="coloredBlur"/>
        <feMergeNode in="SourceGraphic"/>
      </feMerge>
    </filter>
  </defs>
  
  <!-- Background Hexagon -->
  <polygon points="30,5 45,15 45,35 30,45 15,35 15,15" fill="url(#luxuryGradient)" filter="url(#glow)"/>
  
  <!-- Central Diamond -->
  <polygon points="30,20 40,30 30,40 20,30" fill="url(#goldGradient)" opacity="0.9"/>
  
  <!-- Building Silhouettes -->
  <rect x="22" y="25" width="4" height="12" fill="#ffffff" opacity="0.8"/>
  <rect x="28" y="22" width="4" height="15" fill="#ffffff" opacity="0.8"/>
  <rect x="34" y="28" width="4" height="9" fill="#ffffff" opacity="0.8"/>
  
  <!-- Windows -->
  <rect x="22.5" y="26" width="3" height="2" fill="#2c3e50"/>
  <rect x="22.5" y="30" width="3" height="2" fill="#2c3e50"/>
  <rect x="22.5" y="34" width="3" height="2" fill="#2c3e50"/>
  
  <rect x="28.5" y="23" width="3" height="2" fill="#2c3e50"/>
  <rect x="28.5" y="27" width="3" height="2" fill="#2c3e50"/>
  <rect x="28.5" y="31" width="3" height="2" fill="#2c3e50"/>
  <rect x="28.5" y="35" width="3" height="2" fill="#2c3e50"/>
  
  <rect x="34.5" y="29" width="3" height="2" fill="#2c3e50"/>
  <rect x="34.5" y="33" width="3" height="2" fill="#2c3e50"/>
  
  <!-- Decorative Elements -->
  <circle cx="30" cy="12" r="1.5" fill="#ffffff" opacity="0.7"/>
  <circle cx="25" cy="18" r="1" fill="#ffffff" opacity="0.6"/>
  <circle cx="35" cy="18" r="1" fill="#ffffff" opacity="0.6"/>
  
  <!-- Bottom Accent -->
  <rect x="18" y="48" width="24" height="1.5" fill="url(#goldGradient)" rx="0.75"/>
</svg>


